<?xml version="1.0" encoding="UTF-8"?>
<!DOCTYPE svg PUBLIC "-//W3C//DTD SVG 1.1//EN" "http://www.w3.org/Graphics/SVG/1.1/DTD/svg11.dtd">
<!-- Creator: CorelDRAW 2019 (64-Bit) -->
<svg xmlns="http://www.w3.org/2000/svg" xml:space="preserve" width="338px" height="240px" version="1.1" style="shape-rendering:geometricPrecision; text-rendering:geometricPrecision; image-rendering:optimizeQuality; fill-rule:evenodd; clip-rule:evenodd"
viewBox="0 0 338 240.02"
 xmlns:xlink="http://www.w3.org/1999/xlink"
 xmlns:xodm="http://www.corel.com/coreldraw/odm/2003">
 <defs>
  <style type="text/css">
   <![CDATA[
    .fil7 {fill:#FEFEFE}
    .fil5 {fill:#FCD066}
    .fil4 {fill:#FDF8B4}
    .fil6 {fill:#EEEFEE}
    .fil2 {fill:#89C45F}
    .fil1 {fill:#5FB74E}
    .fil0 {fill:#4D4C4B}
    .fil8 {fill:#3CAF41}
    .fil3 {fill:#4A9E4B}
   ]]>
  </style>
 </defs>
 <g id="Layer_x0020_1">
  <metadata id="CorelCorpID_0Corel-Layer"/>
  <g id="_2140156135296">
   <path class="fil0" d="M169.03 34.22c6.96,-3.48 15.41,-5.38 23.13,-6.04l8.69 -0.76c9.51,-0.82 19.03,-0.32 28.55,-0.32l5.23 0 0 5.22c0,23.19 0,46.38 0,69.58l0 2.66c0,23.94 -19.58,43.52 -43.53,43.52l-87.73 0 0 -120.98 5.22 0c9.54,0 19.02,-0.62 28.56,0.11l8.68 0.66c8.25,0.62 15.8,2.62 23.2,6.35z"/>
   <path class="fil1" d="M108.59 32.32l0 59.6 0 9.98 0 2.66 0 38.3 38.3 0 6.01 0 38.2 0c21.07,0 38.3,-17.24 38.3,-38.3l0 -2.66c0,-23.06 0,-45.55 0,-69.58 -9.15,0 -18.82,-0.22 -28.1,0.3l-8.69 0.75c-8.5,1.04 -17.1,3.02 -23.61,6.78 -7.04,-4.06 -14.71,-6.08 -23.57,-7.08l-8.68 -0.66c-9.47,-0.44 -19.18,-0.09 -28.16,-0.09z"/>
   <path class="fil2" d="M119.43 142.86l27.46 0 6.01 0 38.2 0c9.34,0 17.91,-3.39 24.57,-8.98 -7.78,-18.07 -25.75,-30.72 -46.67,-30.72 -24.25,0 -44.52,16.98 -49.57,39.7z"/>
   <path class="fil3" d="M169 142.86l22.55 -0.34c9.21,0 17.59,-3.24 24.12,-8.64 8.41,-6.94 13.73,-17.46 13.73,-29.32l0 -2.66c0,-23.06 0,-45.55 0,-69.58 -9.15,0 -18.82,-0.22 -28.1,0.3l-8.69 0.75c-8.5,1.04 -17.1,3.02 -23.61,6.78l0 102.71z"/>
   <path class="fil1" d="M169 142.86l22.24 0c9.34,0 17.77,-3.38 24.43,-8.98 -7.69,-17.87 -26.05,-30.44 -46.67,-30.72l0 39.7z"/>
   <path class="fil0" d="M201.3 29.01c-1.66,-16.31 -15.44,-29.01 -32.16,-29.01 -16.73,0 -30.5,12.59 -32.39,28.8l8.68 0.67c1.54,-11.71 11.52,-20.76 23.67,-20.76 12.15,0 22.22,9.2 23.51,21.04l8.69 -0.74z"/>
   <path class="fil0" d="M183.12 108.25c-3.78,4 -7.56,8.01 -11.34,12.01l-2.78 2.95 -2.78 -2.95c-3.79,-4 -7.57,-8.01 -11.35,-12.01l-1.96 -2.08 1.43 -2.47c3.04,-5.23 8.71,-8.04 14.66,-8.04 5.94,0 11.61,2.81 14.65,8.04l1.43 2.47 -1.96 2.08z"/>
   <path class="fil4" d="M180.34 105.63c-3.78,4 -7.56,8 -11.34,12.01 -3.78,-4.01 -7.57,-8.01 -11.35,-12.01 2.39,-4.12 6.87,-6.16 11.35,-6.15 4.47,-0.01 8.95,2.03 11.34,6.15z"/>
   <path class="fil5" d="M180.34 105.63c-3.78,4 -7.56,8 -11.34,12.01l0 -18.16c4.47,-0.01 8.95,2.03 11.34,6.15z"/>
   <path class="fil0" d="M140.65 47.39c16.95,0 30.69,13.75 30.69,30.69 0,16.94 -13.74,30.69 -30.69,30.69 -16.95,0 -30.68,-13.75 -30.68,-30.69 0,-16.94 13.73,-30.69 30.68,-30.69z"/>
   <path class="fil6" d="M140.65 52.61c14.06,0 25.47,11.41 25.47,25.47 0,14.06 -11.41,25.46 -25.47,25.46 -14.07,0 -25.47,-11.4 -25.47,-25.46 0,-14.06 11.4,-25.47 25.47,-25.47z"/>
   <path class="fil7" d="M140.65 52.61c11.61,0 21.4,7.77 24.47,18.39 -3.07,10.62 -12.86,18.39 -24.47,18.39 -11.61,0 -21.4,-7.77 -24.46,-18.39 3.06,-10.62 12.85,-18.39 24.46,-18.39z"/>
   <path class="fil0" d="M197.34 47.39c16.95,0 30.69,13.75 30.69,30.69 0,16.94 -13.74,30.69 -30.69,30.69 -16.94,0 -30.69,-13.74 -30.69,-30.69 0,-16.94 13.75,-30.69 30.69,-30.69z"/>
   <path class="fil6" d="M197.34 52.61c14.07,0 25.47,11.41 25.47,25.47 0,14.06 -11.4,25.46 -25.47,25.46 -14.06,0 -25.46,-11.4 -25.46,-25.46 0,-14.06 11.4,-25.47 25.46,-25.47z"/>
   <path class="fil7" d="M197.34 52.61c11.61,0 21.41,7.77 24.47,18.39 -3.06,10.62 -12.86,18.39 -24.47,18.39 -11.61,0 -21.4,-7.77 -24.47,-18.39 3.07,-10.62 12.86,-18.39 24.47,-18.39z"/>
   <path class="fil0" d="M143.85 62.24c9.08,0 16.45,7.36 16.45,16.44 0,9.09 -7.37,16.45 -16.45,16.45 -9.09,0 -16.45,-7.36 -16.45,-16.45 0,-3.03 0.83,-5.87 2.25,-8.3 1.18,2.9 4.02,4.94 7.35,4.94 4.37,0 7.92,-3.54 7.92,-7.92 0,-1.97 -0.71,-3.76 -1.9,-5.14 0.28,-0.02 0.56,-0.02 0.83,-0.02z"/>
   <path class="fil0" d="M194.14 62.24c9.09,0 16.45,7.36 16.45,16.44 0,9.09 -7.36,16.45 -16.45,16.45 -9.08,0 -16.45,-7.36 -16.45,-16.45 0,-3.03 0.82,-5.87 2.25,-8.3 1.18,2.9 4.03,4.94 7.35,4.94 4.38,0 7.92,-3.54 7.92,-7.92 0,-1.97 -0.71,-3.76 -1.9,-5.14 0.28,-0.02 0.55,-0.02 0.83,-0.02z"/>
   <path class="fil8" d="M180.7 218.43c-3.67,3.72 -8.07,5.6 -13.16,5.6 -4.12,0 -7.62,-0.84 -11.19,-2.92l0 -8.54c2.88,1.95 6.48,3.8 10.05,3.8 7.42,0 11.85,-5.11 11.85,-12.35 0,-7.25 -4.58,-12.52 -12.01,-12.52 -3.32,0 -6.01,1.19 -8.11,3.58 -2.25,2.6 -3.42,6.3 -3.42,11.2l0 33.74 -0.56 0c-4.09,0 -7.41,-3.32 -7.41,-7.41l0 -27.6c0,-11.71 7.16,-21.16 19.47,-21.16 6.07,0 11.01,2.07 14.75,6.25 3.51,3.89 5.26,8.84 5.26,14.78 0,5.29 -1.84,9.82 -5.52,13.55zm-169.04 4.81c-7.79,0 -11.66,-5.3 -11.66,-12.71l0 -28.09c0,-4.1 3.32,-7.42 7.41,-7.42l0.56 0 0 9.61 13.47 0 0 7.66 -13.47 0 0 19.13c0,3.25 1.45,4.17 4.56,4.17l8.91 0 0 7.65 -9.78 0zm46.3 -4.88c-3.94,3.78 -8.67,5.67 -14.17,5.67 -5.45,0 -10.16,-1.89 -14.09,-5.67 -3.95,-3.79 -5.92,-8.61 -5.92,-14.42 0,-11.34 8.66,-20.09 20.01,-20.09 5.45,0 10.17,1.9 14.13,5.7 3.98,3.82 5.96,8.63 5.96,14.39 0,5.81 -1.97,10.63 -5.92,14.42zm37.27 -24.44c-1.17,1.96 -2.08,3.37 -2.71,4.22 -0.71,0.92 -1.4,1.66 -2.09,2.17 5.54,1.79 7.6,5.63 7.6,11.35l0 11.58 -0.56 0c-4.09,0 -7.41,-3.31 -7.41,-7.41l0 -3.39c0,-3.7 -1.66,-6.21 -5.58,-6.21l-7.24 0 0 17.01 -0.56 0c-4.09,0 -7.41,-3.31 -7.41,-7.41l0 -41.11c0,-4.1 3.32,-7.42 7.41,-7.42l0.56 0 0 31.19 2.36 0c2.58,0 4.29,-0.88 5.26,-2.56l6.7 -11.3 9.08 0 -5.41 9.29zm41.15 24.44c-3.94,3.78 -8.67,5.67 -14.17,5.67 -5.45,0 -10.15,-1.89 -14.09,-5.67 -3.95,-3.79 -5.92,-8.61 -5.92,-14.42 0,-11.34 8.65,-20.09 20.01,-20.09 5.45,0 10.17,1.9 14.13,5.7 3.98,3.82 5.96,8.63 5.96,14.39 0,5.81 -1.97,10.63 -5.92,14.42zm-5.75 -23.41c-2.2,-2.3 -4.99,-3.45 -8.42,-3.45 -7.34,0 -11.73,5.35 -11.73,12.44 0,6.99 4.5,12.43 11.73,12.43 7.23,0 11.72,-5.44 11.72,-12.43 0,-3.71 -1.11,-6.69 -3.3,-8.99zm-78.42 0c-2.2,-2.3 -4.99,-3.45 -8.42,-3.45 -7.34,0 -11.73,5.35 -11.73,12.44 0,6.99 4.5,12.43 11.73,12.43 7.23,0 11.73,-5.44 11.73,-12.43 0,-3.71 -1.12,-6.69 -3.31,-8.99zm214.8 23.19c-3.66,3.93 -8.36,5.89 -14.08,5.89 -6.02,0 -10.93,-2.08 -14.67,-6.25 -3.51,-3.95 -5.26,-8.89 -5.26,-14.79 0,-10.43 8.05,-19.14 18.64,-19.14 4.09,0 7.64,0.86 11.23,2.82l0 8.63c-2.88,-1.94 -6.49,-3.8 -10.05,-3.8 -7.42,0 -11.85,5.11 -11.85,12.36 0,7.15 4.68,12.51 12,12.51 3.32,0 6.05,-1.24 8.24,-3.74 2.17,-2.49 3.3,-6.14 3.3,-11.05l0 -26.86c0,-4.1 3.31,-7.42 7.41,-7.42l0.56 0 0 35.53c0,6.26 -1.81,11.38 -5.47,15.31zm22.51 -38.09c-0.83,0.94 -2.03,1.37 -3.5,1.37 -2.73,0 -4.69,-2.02 -4.69,-4.73 0,-2.78 1.92,-4.66 4.69,-4.66 2.67,0 4.7,1.98 4.7,4.66 0,1.32 -0.39,2.46 -1.2,3.36zm40.51 21.53c0,-3.15 -1.19,-5.63 -3.58,-7.52 -2.16,-1.7 -4.85,-2.56 -8.11,-2.56 -7.22,0 -11.85,5.64 -11.85,12.59 0,6.7 4.91,12.28 11.78,12.28 4.77,0 7.32,-2.79 10.04,-6.26l0 10.02c-1.39,1.04 -2.98,2.17 -4.61,2.83 -1.72,0.72 -3.77,1.07 -6.14,1.07 -11.47,0 -19.04,-9.5 -19.04,-20.49 0,-5.64 1.75,-10.3 5.28,-13.93 3.74,-3.85 8.65,-5.76 14.66,-5.76 11.39,0 19.54,6.54 19.54,18.35l0 21.04 -0.56 0c-4.09,0 -7.41,-3.31 -7.41,-7.41l0 -14.25zm-109.13 -2.26c-1.01,-3.12 -2.27,-4.65 -5.18,-6.27 -6.9,-3.86 -13.7,-0.58 -16.86,6.24l22.04 0.03zm-6.08 24.59c-5.09,1.08 -10.09,0.25 -14.96,-2.47 -4.76,-2.66 -7.94,-6.61 -9.54,-11.83 -3.22,-10.55 3.39,-22.31 14.02,-25.16 5.27,-1.41 10.32,-0.77 15.12,1.91 7.98,4.46 10.88,11.35 10.37,20.24l-32.11 -0.07c0.47,3.63 2.72,6.46 5.87,8.22 3.2,1.79 6.15,2.22 8.88,1.37 3.03,-0.95 5.49,-3.42 7.49,-5.73l6.55 4.77c-2.67,4.78 -6.31,7.61 -11.69,8.75zm67.22 -39.28l7.97 0 0 38.61 -0.56 0c-4.09,0 -7.41,-3.31 -7.41,-7.41l0 -31.2z"/>
  </g>
 </g>
</svg>
